<?xml version="1.0" encoding="utf-8"?><svg viewBox="0 0 83 70" xmlns="http://www.w3.org/2000/svg" xmlns:xlink="http://www.w3.org/1999/xlink"><style>:root>svg{display:none}:root>svg:target{display:block}</style><svg viewBox="0 0 20 20" id="sprite--close" xmlns="http://www.w3.org/2000/svg"><path fill-rule="evenodd" clip-rule="evenodd" d="M2.381.398l8.877 8.642c.545.53.545 1.39 0 1.92l-8.877 8.642c-.545.53-1.428.53-1.972 0a1.333 1.333 0 010-1.92L8.299 10 .41 2.318a1.333 1.333 0 010-1.92 1.422 1.422 0 011.972 0z"/><path fill-rule="evenodd" clip-rule="evenodd" d="M17.619.398L8.742 9.04a1.333 1.333 0 000 1.92l8.877 8.642c.544.53 1.428.53 1.972 0 .545-.53.545-1.39 0-1.92L11.701 10l7.89-7.682c.545-.53.545-1.39 0-1.92a1.422 1.422 0 00-1.972 0z"/></svg><svg fill="none" viewBox="0 0 24 24" id="sprite--phone" xmlns="http://www.w3.org/2000/svg"><path d="M21.97 18.33c0 .36-.08.73-.25 1.09-.17.36-.39.7-.68 1.02-.49.54-1.03.93-1.64 1.18-.6.25-1.25.38-1.95.38-1.02 0-2.11-.24-3.26-.73s-2.3-1.15-3.44-1.98a28.75 28.75 0 01-3.28-2.8 28.414 28.414 0 01-2.79-3.27c-.82-1.14-1.48-2.28-1.96-3.41C2.24 8.67 2 7.58 2 6.54c0-.68.12-1.33.36-1.93.24-.61.62-1.17 1.15-1.67C4.15 2.31 4.85 2 5.59 2c.28 0 .56.06.81.18.26.12.49.3.67.56l2.32 3.27c.18.25.31.48.4.7.09.21.14.42.14.61 0 .24-.07.48-.21.71-.13.23-.32.47-.56.71l-.76.79c-.11.11-.16.24-.16.4 0 .08.01.15.03.23.03.08.06.14.08.2.18.33.49.76.93 1.28.45.52.93 1.05 1.45 1.58.54.53 1.06 1.02 1.59 1.47.52.44.95.74 1.29.92.05.02.11.05.18.08.08.03.16.04.25.04.17 0 .3-.06.41-.17l.76-.75c.25-.25.49-.44.72-.56.23-.14.46-.21.71-.21.19 0 .39.04.61.13.22.09.45.22.7.39l3.31 2.35c.26.18.44.39.55.64.1.25.16.5.16.78zM18.5 9c0-.6-.47-1.52-1.17-2.27-.64-.69-1.49-1.23-2.33-1.23M22 9c0-3.87-3.13-7-7-7"/></svg><svg fill="none" viewBox="0 0 83 58" id="sprite--quotes" xmlns="http://www.w3.org/2000/svg"><path d="M20.134 58c-3.425 0-6.506-.606-9.245-1.819-2.603-1.347-4.657-3.166-6.164-5.456-1.37-2.021-2.534-4.581-3.492-7.68C.41 39.812 0 36.376 0 32.74c0-6.737 1.712-13.001 5.136-18.795C8.697 8.016 14.176 3.368 21.572 0l1.849 3.638c-3.698 1.616-6.985 4.041-9.862 7.275-2.876 3.099-4.725 6.4-5.547 9.902-.958 3.368-1.095 6.602-.41 9.7 3.287-3.637 7.806-5.456 13.559-5.456 5.067 0 9.176 1.415 12.327 4.244 3.15 2.83 4.725 6.871 4.725 12.126 0 4.984-1.712 9.026-5.136 12.125C29.79 56.518 25.475 58 20.134 58zm44.787 0c-3.424 0-6.506-.606-9.245-1.819-2.603-1.347-4.657-3.166-6.164-5.456-1.37-2.021-2.533-4.581-3.492-7.68-.822-3.233-1.233-6.669-1.233-10.306 0-6.737 1.712-13.001 5.136-18.795C53.484 8.016 58.963 3.368 66.36 0l1.849 3.638c-3.698 1.616-6.985 4.041-9.861 7.275-2.877 3.099-4.726 6.4-5.547 9.902-.96 3.368-1.096 6.602-.411 9.7 3.287-3.637 7.807-5.456 13.56-5.456 5.067 0 9.176 1.415 12.326 4.244C81.425 32.133 83 36.174 83 41.43c0 4.984-1.712 9.026-5.136 12.125C74.577 56.518 70.262 58 64.92 58z" fill="#D3B47F"/></svg><svg viewBox="0 0 70 70" id="sprite--slider-arrow" xmlns="http://www.w3.org/2000/svg"><path d="M43.896 11.9L24.879 30.917c-2.246 2.245-2.246 5.92 0 8.166L43.896 58.1"/></svg><svg class="esocial-icon" viewBox="0 0 48 48" id="sprite--social-fb" xmlns="http://www.w3.org/2000/svg"><circle cx="24" cy="24" r="23.5" stroke="#fff"/><path d="M14.44 30h2.24v-4.72h3.568v-1.776H16.68V20.64h4.656v-1.808H14.44V30zm10.724-7.568V18.16h-2.24V30h2.24v-1.264c.544.768 1.536 1.408 2.928 1.408 2.272 0 4.048-1.84 4.048-4.608s-1.776-4.544-4.048-4.544c-1.344 0-2.384.624-2.928 1.44zm4.688 3.104c0 1.68-1.136 2.64-2.352 2.64-1.2 0-2.336-.928-2.336-2.608 0-1.68 1.136-2.608 2.336-2.608 1.216 0 2.352.896 2.352 2.576z" fill="#fff"/></svg><svg viewBox="0 0 48 48" id="sprite--social-lg" xmlns="http://www.w3.org/2000/svg"><circle cx="24" cy="24" r="23.5" stroke="#fff"/><path d="M16.456 30h2.24V18.832h-2.24V30zm3.877-4.464c0 2.768 1.792 4.608 4.048 4.608 1.392 0 2.4-.688 2.928-1.456v1.376c0 1.648-.96 2.352-2.192 2.352-1.12 0-1.952-.528-2.176-1.328h-2.224c.224 2.032 1.968 3.28 4.464 3.28 2.912 0 4.384-1.904 4.384-4.304v-8.928h-2.256V22.4c-.528-.768-1.536-1.408-2.928-1.408-2.256 0-4.048 1.776-4.048 4.544zm6.976.032c0 1.68-1.12 2.608-2.352 2.608-1.2 0-2.336-.96-2.336-2.64 0-1.68 1.136-2.576 2.336-2.576 1.232 0 2.352.928 2.352 2.608z" fill="#fff"/></svg><svg viewBox="0 0 48 48" id="sprite--social-tw" xmlns="http://www.w3.org/2000/svg"><circle cx="24" cy="24" r="23.5" stroke="#fff"/><path d="M12.645 20.64h2.976V30h2.24v-9.36h2.976v-1.808h-8.192v1.808zM24.087 30h2.432l1.616-6.192L29.751 30h2.416l2.592-8.864h-2.144l-1.568 6.736-1.664-6.736h-2.368l-1.696 6.752-1.568-6.752H21.48L24.087 30z" fill="#fff"/></svg><svg viewBox="0 0 48 48" id="sprite--social-yt" xmlns="http://www.w3.org/2000/svg"><circle cx="24" cy="24" r="23.5" stroke="#fff"/><path d="M19.28 26.112V30h2.24v-3.888l3.777-7.28H22.8l-2.384 5.104-2.4-5.104H15.49l3.791 7.28zm7.66 1.136c0 2.032 1.136 2.752 2.832 2.752h1.408v-1.888h-1.04c-.704 0-.944-.256-.944-.848v-4.288h1.984v-1.84h-1.984v-2.192H26.94v2.192h-1.056v1.84h1.056v4.272z" fill="#fff"/></svg></svg>